<svg width="49" height="32" viewBox="0 0 49 32" fill="none" xmlns="http://www.w3.org/2000/svg">
<path d="M20.25 15.5C20.5333 15.5 20.7708 15.4042 20.9625 15.2125C21.1542 15.0208 21.25 14.7833 21.25 14.5C21.25 14.2167 21.1542 13.9792 20.9625 13.7875C20.7708 13.5958 20.5333 13.5 20.25 13.5C19.9667 13.5 19.7292 13.5958 19.5375 13.7875C19.3458 13.9792 19.25 14.2167 19.25 14.5C19.25 14.7833 19.3458 15.0208 19.5375 15.2125C19.7292 15.4042 19.9667 15.5 20.25 15.5ZM24.25 15.5C24.5333 15.5 24.7708 15.4042 24.9625 15.2125C25.1542 15.0208 25.25 14.7833 25.25 14.5C25.25 14.2167 25.1542 13.9792 24.9625 13.7875C24.7708 13.5958 24.5333 13.5 24.25 13.5C23.9667 13.5 23.7292 13.5958 23.5375 13.7875C23.3458 13.9792 23.25 14.2167 23.25 14.5C23.25 14.7833 23.3458 15.0208 23.5375 15.2125C23.7292 15.4042 23.9667 15.5 24.25 15.5ZM28.25 15.5C28.5333 15.5 28.7708 15.4042 28.9625 15.2125C29.1542 15.0208 29.25 14.7833 29.25 14.5C29.25 14.2167 29.1542 13.9792 28.9625 13.7875C28.7708 13.5958 28.5333 13.5 28.25 13.5C27.9667 13.5 27.7292 13.5958 27.5375 13.7875C27.3458 13.9792 27.25 14.2167 27.25 14.5C27.25 14.7833 27.3458 15.0208 27.5375 15.2125C27.7292 15.4042 27.9667 15.5 28.25 15.5ZM18.25 22L15.95 24.3C15.6333 24.6167 15.2708 24.6875 14.8625 24.5125C14.4542 24.3375 14.25 24.025 14.25 23.575V9C14.25 8.45 14.4458 7.97917 14.8375 7.5875C15.2292 7.19583 15.7 7 16.25 7H32.25C32.8 7 33.2708 7.19583 33.6625 7.5875C34.0542 7.97917 34.25 8.45 34.25 9V20C34.25 20.55 34.0542 21.0208 33.6625 21.4125C33.2708 21.8042 32.8 22 32.25 22H18.25ZM16.25 20H32.25V9H16.25V20Z" fill="#3A484D"/>
</svg>
