<svg width="24" height="24" viewBox="0 0 24 24" fill="none" xmlns="http://www.w3.org/2000/svg">
<path d="M13.9 22C12.6 22 11 21.5 9.39999 20.4C7.39999 19.1 5.5 17.1 4.4 15C3 12.7 2.7 10.5 3.3 8.5C4 6.3 6.1 4.6 9.5 3.6C13 2.6 15.7 2.8 17.5 4.4C19 5.7 19.9 7.8 20 10.5C20.1 12.9 19.6 15.5 18.7 17.7C18.2 18.8 17.7 19.7 17.1 20.4C16.5 21.2 15.8 21.6 15.1 21.8C14.7 21.9 14.3 22 13.9 22ZM13.3 5C12.4 5 11.3 5.2 10.1 5.5C7.4 6.3 5.79999 7.5 5.19999 9.1C4.79999 10.4 5.09999 12.2 6.09999 14C7.09999 15.8 8.7 17.5 10.5 18.7C12.3 19.9 13.8 20.1 14.5 19.9C14.6 19.9 15 19.7 15.5 19.1C16 18.5 16.4 17.8 16.8 16.9C17.6 15 18.1 12.6 18 10.5C17.9 8.4 17.3 6.8 16.2 5.9C15.5 5.3 14.5 5 13.3 5ZM11.8 15C9.7 15 8 13.3 8 11.2C8 9.1 9.7 7.4 11.8 7.4C13.9 7.4 15.6 9.1 15.6 11.2C15.5 13.3 13.8 15 11.8 15ZM11.8 9.5C10.8 9.5 10 10.3 10 11.3C10 12.3 10.8 13.1 11.8 13.1C12.8 13.1 13.6 12.3 13.6 11.3C13.6 10.3 12.7 9.5 11.8 9.5Z" fill="black"/>
</svg>
