<svg width="49" height="32" viewBox="0 0 49 32" fill="none" xmlns="http://www.w3.org/2000/svg">
<path d="M18.25 23H21.25V17H27.25V23H30.25V14L24.25 9.5L18.25 14V23ZM18.25 25C17.7 25 17.2292 24.8042 16.8375 24.4125C16.4458 24.0208 16.25 23.55 16.25 23V14C16.25 13.6833 16.3208 13.3833 16.4625 13.1C16.6042 12.8167 16.8 12.5833 17.05 12.4L23.05 7.9C23.2333 7.76667 23.425 7.66667 23.625 7.6C23.825 7.53333 24.0333 7.5 24.25 7.5C24.4667 7.5 24.675 7.53333 24.875 7.6C25.075 7.66667 25.2667 7.76667 25.45 7.9L31.45 12.4C31.7 12.5833 31.8958 12.8167 32.0375 13.1C32.1792 13.3833 32.25 13.6833 32.25 14V23C32.25 23.55 32.0542 24.0208 31.6625 24.4125C31.2708 24.8042 30.8 25 30.25 25H25.25V19H23.25V25H18.25Z" fill="#3A484D"/>
</svg>
