<svg width="49" height="32" viewBox="0 0 49 32" fill="none" xmlns="http://www.w3.org/2000/svg">
<path d="M17.75 15C17.2 15 16.7292 14.8042 16.3375 14.4125C15.9458 14.0208 15.75 13.55 15.75 13V9C15.75 8.45 15.9458 7.97917 16.3375 7.5875C16.7292 7.19583 17.2 7 17.75 7H21.75C22.3 7 22.7708 7.19583 23.1625 7.5875C23.5542 7.97917 23.75 8.45 23.75 9V13C23.75 13.55 23.5542 14.0208 23.1625 14.4125C22.7708 14.8042 22.3 15 21.75 15H17.75ZM17.75 25C17.2 25 16.7292 24.8042 16.3375 24.4125C15.9458 24.0208 15.75 23.55 15.75 23V19C15.75 18.45 15.9458 17.9792 16.3375 17.5875C16.7292 17.1958 17.2 17 17.75 17H21.75C22.3 17 22.7708 17.1958 23.1625 17.5875C23.5542 17.9792 23.75 18.45 23.75 19V23C23.75 23.55 23.5542 24.0208 23.1625 24.4125C22.7708 24.8042 22.3 25 21.75 25H17.75ZM27.75 15C27.2 15 26.7292 14.8042 26.3375 14.4125C25.9458 14.0208 25.75 13.55 25.75 13V9C25.75 8.45 25.9458 7.97917 26.3375 7.5875C26.7292 7.19583 27.2 7 27.75 7H31.75C32.3 7 32.7708 7.19583 33.1625 7.5875C33.5542 7.97917 33.75 8.45 33.75 9V13C33.75 13.55 33.5542 14.0208 33.1625 14.4125C32.7708 14.8042 32.3 15 31.75 15H27.75ZM27.75 25C27.2 25 26.7292 24.8042 26.3375 24.4125C25.9458 24.0208 25.75 23.55 25.75 23V19C25.75 18.45 25.9458 17.9792 26.3375 17.5875C26.7292 17.1958 27.2 17 27.75 17H31.75C32.3 17 32.7708 17.1958 33.1625 17.5875C33.5542 17.9792 33.75 18.45 33.75 19V23C33.75 23.55 33.5542 24.0208 33.1625 24.4125C32.7708 24.8042 32.3 25 31.75 25H27.75ZM17.75 13H21.75V9H17.75V13ZM27.75 13H31.75V9H27.75V13ZM27.75 23H31.75V19H27.75V23ZM17.75 23H21.75V19H17.75V23Z" fill="#3A484D"/>
</svg>
