<svg width="24" height="24" viewBox="0 0 24 24" fill="none" xmlns="http://www.w3.org/2000/svg">
<path d="M17.3 21.5C16.4 21.5 15.5 21.4 14.6 21.3C12.8 21 11 21 9.2 21.3C8.3 21.4 7.4 21.5 6.5 21.5C5.8 21.5 5.1 21.2 4.6 20.6C4.1 20 3.8 19.3 3.8 18.6C3.8 17.7 4.1 17 4.7 16.3C5.3 15.7 5.9 15 6.5 14.4C7 13.9 7.4 13.3 7.8 12.7C8.1 12.1 8.6 11.5 9.1 11C9.5 10.6 9.9 10.2 10.4 9.9C11.4 9.3 12.6 9.3 13.6 9.9C14.1 10.2 14.5 10.5 14.9 11C15.4 11.5 15.8 12.1 16.1 12.7C16.5 13.3 16.9 13.9 17.4 14.4C18 15 18.6 15.7 19.2 16.3C19.8 16.9 20.1 17.7 20.1 18.6C20.1 19.4 19.8 20.1 19.3 20.6C18.7 21.2 18.1 21.5 17.3 21.5ZM12 19.3C13 19.3 14 19.4 15 19.6C15.8 19.7 16.6 19.8 17.4 19.8C17.6 19.8 17.8 19.7 17.9 19.5C18.1 19.3 18.2 19 18.2 18.7C18.2 18.3 18.1 18 17.8 17.6C17.2 17 16.6 16.3 16 15.7C15.4 15.1 14.9 14.4 14.5 13.7C14.2 13.2 13.9 12.7 13.5 12.3C13.3 12 13 11.8 12.7 11.6C12.3 11.4 11.8 11.4 11.3 11.6C11 11.8 10.7 12 10.5 12.3C10.1 12.7 9.8 13.2 9.5 13.7C9 14.4 8.5 15 8 15.7C7.4 16.3 6.8 17 6.3 17.6C6 17.9 5.9 18.2 5.9 18.7C5.9 19 6 19.3 6.2 19.5C6.4 19.7 6.5 19.8 6.7 19.8C7.5 19.8 8.3 19.7 9.1 19.6C10 19.4 11 19.3 12 19.3ZM19.5 11.5C18.8 11.5 18.2 11.3 17.7 10.8C17.2 10.3 17 9.7 17 9C17 8.3 17.2 7.7 17.7 7.2C18.7 6.2 20.3 6.2 21.2 7.2C21.8 7.7 22 8.3 22 9C22 9.7 21.8 10.3 21.3 10.8C20.8 11.3 20.2 11.5 19.5 11.5ZM19.5 8.3C19.3 8.3 19.1 8.4 19 8.5C18.9 8.6 18.8 8.8 18.8 9C18.8 9.2 18.9 9.4 19 9.5C19.1 9.6 19.3 9.7 19.5 9.7C19.7 9.7 19.9 9.6 20 9.5C20.1 9.4 20.2 9.2 20.2 9C20.2 8.8 20.1 8.6 20 8.5C19.9 8.4 19.7 8.3 19.5 8.3ZM4.5 11.5C3.8 11.5 3.2 11.3 2.7 10.8C2.2 10.3 2 9.7 2 9C2 8.3 2.2 7.7 2.7 7.2C3.7 6.2 5.3 6.2 6.2 7.2C6.8 7.7 7 8.3 7 9C7 9.7 6.8 10.3 6.3 10.8C5.8 11.3 5.2 11.5 4.5 11.5ZM4.5 8.3C4.2 8.3 4.1 8.4 4 8.5C3.9 8.6 3.8 8.8 3.8 9C3.8 9.2 3.9 9.4 4 9.5C4.1 9.6 4.2 9.7 4.5 9.7C4.8 9.7 4.9 9.7 5 9.5C5.1 9.4 5.2 9.3 5.2 9C5.2 8.7 5.1 8.6 5 8.5C4.9 8.4 4.8 8.3 4.5 8.3ZM15 7.5C14.3 7.5 13.7 7.3 13.2 6.8C12.7 6.3 12.5 5.7 12.5 5C12.5 4.3 12.7 3.7 13.2 3.2C14.2 2.2 15.8 2.2 16.7 3.2C17.2 3.7 17.4 4.3 17.4 5C17.4 5.7 17.2 6.3 16.7 6.8C16.3 7.3 15.7 7.5 15 7.5ZM15 4.3C14.8 4.3 14.6 4.4 14.5 4.5C14.4 4.6 14.3 4.8 14.3 5C14.3 5.2 14.4 5.4 14.5 5.5C14.6 5.6 14.8 5.7 15 5.7C15.2 5.7 15.4 5.6 15.5 5.5C15.6 5.4 15.7 5.2 15.7 5C15.7 4.8 15.6 4.6 15.5 4.5C15.4 4.4 15.2 4.3 15 4.3ZM9 7.5C8.3 7.5 7.7 7.3 7.2 6.8C6.7 6.3 6.5 5.7 6.5 5C6.5 4.3 6.7 3.7 7.2 3.2C8.2 2.2 9.8 2.2 10.7 3.2C11.2 3.7 11.4 4.3 11.4 5C11.4 5.7 11.2 6.3 10.7 6.8C10.3 7.3 9.7 7.5 9 7.5ZM9 4.3C8.7 4.3 8.6 4.4 8.5 4.5C8.4 4.6 8.3 4.8 8.3 5C8.3 5.2 8.4 5.4 8.5 5.5C8.6 5.7 8.7 5.7 9 5.7C9.3 5.7 9.4 5.6 9.5 5.5C9.6 5.4 9.7 5.3 9.7 5C9.7 4.7 9.6 4.6 9.5 4.5C9.4 4.4 9.3 4.3 9 4.3Z" fill="black"/>
</svg>
