<svg width="24" height="24" viewBox="0 0 24 24" fill="none" xmlns="http://www.w3.org/2000/svg">
<path fill-rule="evenodd" clip-rule="evenodd" d="M12 5C12.3343 5 12.6466 5.1671 12.832 5.4453L16.227 10.5378L20.3753 7.21913C20.7035 6.95657 21.1609 6.92726 21.5199 7.14577C21.8789 7.36428 22.063 7.78398 21.9806 8.19612L19.9806 18.1961C19.8871 18.6635 19.4767 19 19 19H4.99999C4.52331 19 4.1129 18.6635 4.01941 18.1961L2.01941 8.19612C1.93698 7.78398 2.12107 7.36428 2.4801 7.14577C2.83914 6.92726 3.29649 6.95657 3.62469 7.21913L7.77297 10.5378L11.1679 5.4453C11.3534 5.1671 11.6656 5 12 5ZM12 7.80278L8.83204 12.5547C8.67657 12.7879 8.43037 12.9452 8.15341 12.9882C7.87645 13.0312 7.59416 12.956 7.3753 12.7809L4.51896 10.4958L5.8198 17H18.1802L19.481 10.4958L16.6247 12.7809C16.4058 12.956 16.1235 13.0312 15.8466 12.9882C15.5696 12.9452 15.3234 12.7879 15.1679 12.5547L12 7.80278Z" fill="black"/>
</svg>
