<svg width="49" height="32" viewBox="0 0 49 32" fill="none" xmlns="http://www.w3.org/2000/svg">
<rect x="0.75" width="48" height="32" rx="16" fill="#DFFAFD"/>
<path d="M24.75 16C23.65 16 22.7083 15.6083 21.925 14.825C21.1417 14.0417 20.75 13.1 20.75 12C20.75 10.9 21.1417 9.95833 21.925 9.175C22.7083 8.39167 23.65 8 24.75 8C25.85 8 26.7917 8.39167 27.575 9.175C28.3583 9.95833 28.75 10.9 28.75 12C28.75 13.1 28.3583 14.0417 27.575 14.825C26.7917 15.6083 25.85 16 24.75 16ZM30.75 24H18.75C18.2 24 17.7292 23.8042 17.3375 23.4125C16.9458 23.0208 16.75 22.55 16.75 22V21.2C16.75 20.6333 16.8958 20.1125 17.1875 19.6375C17.4792 19.1625 17.8667 18.8 18.35 18.55C19.3833 18.0333 20.4333 17.6458 21.5 17.3875C22.5667 17.1292 23.65 17 24.75 17C25.85 17 26.9333 17.1292 28 17.3875C29.0667 17.6458 30.1167 18.0333 31.15 18.55C31.6333 18.8 32.0208 19.1625 32.3125 19.6375C32.6042 20.1125 32.75 20.6333 32.75 21.2V22C32.75 22.55 32.5542 23.0208 32.1625 23.4125C31.7708 23.8042 31.3 24 30.75 24Z" fill="#2371EE"/>
</svg>
